<svg width="226" height="226" viewBox="0 0 226 226" fill="none" xmlns="http://www.w3.org/2000/svg">
<path d="M152.007 212.934C135.471 212.934 118.95 212.382 102.418 211.828C85.8883 211.276 69.3461 210.724 52.7754 210.724C51.8056 210.724 50.8383 210.726 49.8683 210.73C43.1859 210.758 36.3975 211.195 29.7206 211.491C27.2918 211.598 24.4267 211.916 21.6634 211.916C19.812 211.916 18.0064 211.773 16.4077 211.33C13.8901 210.633 14.0778 208.202 15.9942 206.941C19.4924 204.641 24.7631 204.379 28.7437 204.119C39.1548 203.436 49.5623 202.685 59.9649 201.861C80.7702 200.217 101.557 198.29 122.318 196.082C125.661 195.726 129.001 195.34 132.342 194.955C143.383 193.682 154.427 192.884 165.491 192.106C169.873 191.798 174.271 191.57 178.666 191.57C182.149 191.57 185.63 191.713 189.101 192.072C195.85 192.77 204 194.171 209.211 199.402C212.136 202.335 210.891 206.041 206.592 208.538C202.05 211.179 196.285 211.256 191.263 211.624C178.162 212.587 165.08 212.934 152.007 212.934ZM119.024 203.549C117.8 203.549 116.576 203.565 115.353 203.604C114.621 203.628 106.624 203.835 107.376 205.205C108.009 206.361 111.98 206.653 113.338 206.653C113.392 206.653 113.443 206.653 113.489 206.651C115.431 206.613 117.385 206.556 119.296 206.24C120.276 206.077 121.244 205.847 122.165 205.517C122.39 205.436 122.788 205.298 123.154 205.122C123.551 204.933 123.912 204.701 123.975 204.46C124.044 204.194 123.825 203.926 123.557 203.777C123.166 203.561 122.516 203.509 121.855 203.509C121.55 203.509 121.243 203.521 120.957 203.531C120.672 203.543 120.408 203.553 120.192 203.553C120.175 203.553 120.159 203.553 120.144 203.553C119.771 203.549 119.397 203.549 119.024 203.549Z" fill="#EBEBEB"/>
<path d="M155.974 89.4543L156.496 85.3422L158.252 85.5162L158.514 88.4214L159.377 88.1154L158.505 91.5733L156.658 91.6404L155.974 89.4543Z" fill="#EBCEB1"/>
<path d="M166.711 115.1C169.36 115.336 172.397 115.213 174.153 113.216C175.581 111.592 175.703 109.172 175.231 107.062C175.176 106.818 175.1 106.553 174.893 106.413C174.702 106.284 174.452 106.297 174.222 106.314C171.864 106.496 169.506 106.678 167.148 106.86C165.826 106.962 163.177 107.699 162.457 106.666C161.645 105.502 161.64 102.623 161.361 101.246C160.638 97.6664 159.915 94.0875 159.191 90.5084L155.537 90.8304C155.573 94.126 155.608 97.4217 155.644 100.717C155.669 103.073 155.695 105.43 155.72 107.786C155.787 114.056 161.578 114.641 166.711 115.1Z" fill="#D1D9DB"/>
<path d="M182.133 108.005C184.294 109.649 185.215 112.598 185.751 115.328C187.955 126.565 186.831 138.157 185.67 149.549C185.54 150.824 185.233 151.376 184.004 150.828C176.293 147.391 168.707 142.952 160.281 142.413C162.393 135.261 162.617 127.7 164.049 120.382C164.464 118.258 164.987 116.139 165.896 114.175C167.081 111.615 168.974 108.847 171.071 106.939C173.045 105.142 176.182 105.939 178.551 106.539C179.533 106.787 180.528 107.041 181.413 107.534C181.667 107.676 181.906 107.833 182.133 108.005Z" fill="#D1D9DB"/>
<path d="M79.4278 113.143L81.5736 113.748L83.2909 112.777L83.6815 113.03L83.3815 113.519L85.0377 113.113L86.2787 113.703L86.5798 115.489L85.6724 117.142L83.8388 117.264L81.8868 116.315L78.9121 115.611L79.4278 113.143Z" fill="#EBCEB1"/>
<path d="M80.3986 112.021L58.8946 106.751C58.1529 106.569 57.265 105.75 56.6221 105.356C55.0939 104.418 53.5657 103.481 52.0372 102.543C50.9922 101.902 49.1585 100.259 47.8907 100.259C45.8253 100.26 44.7325 103.342 44.7176 104.996C44.6715 110.074 49.4145 112.25 52.9503 114.972L56.3604 116.737L80.2369 117.213L80.3986 112.021Z" fill="#D1D9DB"/>
<path d="M54.3769 85.8903C51.6355 86.805 48.711 84.804 46.0665 86.1258C44.3471 86.9854 43.1777 89.1496 42.8963 91.3348C42.7651 92.3532 42.8076 93.4182 43.175 94.3091C43.4133 94.8872 43.7791 95.3716 44.1896 95.7809C44.7385 96.3282 45.3768 96.7381 46.0615 97.0054C45.7968 97.7378 45.4765 98.4458 45.1061 99.1183C46.4557 99.3723 47.8056 99.6261 49.1554 99.8801C49.33 98.9604 49.5049 98.0409 49.6795 97.1212C50.0608 97.0026 50.4356 96.8454 50.7966 96.641C52.9793 95.4034 54.5693 92.6417 54.7317 89.8048C54.808 88.4758 54.5961 87.1728 54.3769 85.8903Z" fill="#EBCEB1"/>
<path d="M40.5003 91.747C40.3843 91.5494 40.2731 91.3492 40.173 91.1426C38.958 88.6346 38.306 85.6901 40.1033 83.2732C41.9338 80.8118 45.6832 79.735 48.5487 80.4648C50.1276 80.8668 51.7967 81.4076 53.3448 80.8992C53.8077 80.7472 54.2567 80.4883 54.5195 80.0778C54.7629 79.6971 54.8255 79.2212 55.0769 78.8459C55.6653 77.9675 57.2704 78.1754 57.6157 79.1744C57.7168 79.4673 57.7234 79.794 57.8763 80.0637C58.2145 80.6614 59.0405 80.6871 59.7214 80.7768C59.9399 80.8054 60.1752 80.8589 60.3142 81.03C60.5674 81.3414 60.3262 81.833 59.9776 82.0325C59.4968 82.3078 58.6576 82.2309 58.3533 82.7703C58.1333 83.1606 58.4701 83.9087 58.4137 84.3591C58.2159 85.9361 56.8549 87.3686 55.4173 87.9056C54.0399 88.4201 52.8066 87.8615 51.4307 87.5092C51.0413 87.4095 50.6262 87.166 50.2443 87.1132C49.7629 87.0466 49.2889 87.282 48.8293 87.3841C48.2554 87.512 47.6588 87.4399 47.0728 87.3918C46.4869 87.3437 45.8768 87.3237 45.3325 87.5457C44.788 87.7681 44.3266 88.2944 44.3596 88.8815C44.3995 89.5922 45.1154 90.1453 45.1021 90.8571C45.0902 91.4741 44.5415 91.9348 44.3068 92.5056C44.1251 92.9477 44.1201 93.4827 43.7886 93.827C43.6417 93.98 43.4425 94.0785 43.3088 94.2433C43.1341 94.4588 43.0806 94.7753 42.8473 94.9259C42.5893 95.0925 42.2267 94.961 42.0279 94.7267C41.8291 94.4925 41.7477 94.1841 41.6494 93.893C41.3847 93.1103 40.9118 92.447 40.5003 91.747Z" fill="#333333"/>
<path d="M45.6766 98.8168C45.0663 98.7546 44.4103 98.7008 43.8759 98.9943C43.3947 99.2584 43.1058 99.7539 42.8458 100.228C36.0003 112.718 33.0347 127.192 34.4334 141.282C42.5876 139.814 50.8974 139.165 59.1877 139.348C58.4321 133.871 57.6766 128.394 56.9212 122.917C56.3639 118.876 55.8053 114.83 54.8794 110.855C54.0676 107.371 52.9745 103.949 51.6131 100.63C50.7526 98.5346 47.6198 99.0152 45.6766 98.8168Z" fill="#D1D9DB"/>
<path d="M63.4128 203.404L65.0051 204.893C66.0308 205.849 65.7959 207.588 64.5098 208.148C63.752 208.48 62.6843 208.428 61.2074 207.419L57.8164 203.561L58.3671 202.314L63.2642 201.573L63.4128 203.404Z" fill="#1A1A1A"/>
<path d="M60.0839 138.046L67.9684 170.261L65.6459 201.779L57.8654 202.451L56.0701 174.023C56.0701 174.023 39.0033 142.873 39.9798 142.199C40.9565 141.524 60.0839 138.046 60.0839 138.046Z" fill="#3C6794"/>
<path d="M39.284 203.404L40.8793 204.887C41.9068 205.844 41.6753 207.582 40.3902 208.146C39.6331 208.478 38.5653 208.428 37.0866 207.421L33.688 203.571V201.779L34.9727 200.646L38.715 201.339L39.284 203.404Z" fill="#1A1A1A"/>
<path d="M54.6958 140.085L52.2499 173.16L40.7735 202.276L32.7031 200.659L39.7718 173.065C39.7718 173.065 33.1547 138.169 34.2918 137.829C35.4288 137.489 54.6958 140.085 54.6958 140.085Z" fill="#3C6794"/>
<path d="M33.688 138.807L36.7438 131.413L47.3878 127.882L45.3578 114.401L55.9776 112.682L57.8166 131.651L60.4194 139.416L34.7566 144.104L33.688 138.807Z" fill="#3C6794"/>
<path d="M45.9315 108.519C45.9489 106.434 45.8409 104.061 44.249 102.715C43.8911 102.412 43.45 102.174 42.9809 102.177C42.0229 102.182 41.3725 103.119 40.8945 103.95C40.7372 102.711 40.6465 101.342 41.3723 100.326C42.296 99.0332 44.303 98.875 45.6596 99.7025C47.0164 100.53 47.7794 102.09 48.0677 103.653C48.3559 105.216 48.2403 106.82 48.2387 108.409C48.2365 110.726 48.4794 113.035 48.7221 115.34C47.7947 115.277 46.8895 115.467 45.9853 115.507C45.4334 113.471 45.9136 110.664 45.9315 108.519Z" fill="#3C6794"/>
<path d="M53.1085 106.361C52.8777 104.353 52.3921 102.137 50.7243 100.995C50.3107 100.712 49.7768 100.401 49.8021 99.9009C49.8168 99.6082 50.039 99.3623 50.2922 99.2149C51.1388 98.7218 52.2819 99.1444 52.9027 99.9021C53.5237 100.66 53.7463 101.66 53.9316 102.621C54.6686 106.449 55.1135 110.334 55.2612 114.229C55.2835 114.814 53.8568 114.488 53.6171 114.224C53.2246 113.792 53.4435 112.776 53.4411 112.257C53.432 110.286 53.3337 108.32 53.1085 106.361Z" fill="#3C6794"/>
<path d="M177.157 196.326L176.835 198.481L177.566 202.578L179.974 202.351L180.427 196.282L180.073 195.309L177.157 196.326Z" fill="#514943"/>
<path d="M165.838 202.252L162.067 205.016L162.538 207.082L169.442 205.437L168.881 202.451L165.838 202.252Z" fill="#514943"/>
<path d="M158.409 147.922L158.532 176.275L164.852 202.886H169.997L169.676 172.019L172.771 148.689L170.504 144.073L159.071 145.371L158.409 147.922Z" fill="#3C6794"/>
<path d="M171.448 168.787L176.836 195.854L181.522 195.308L182.804 174.17L185.213 151.05L182.785 144.287H169.703L171.448 168.787Z" fill="#3C6794"/>
<path d="M183.914 98.3648C183.426 93.7411 177.547 90.9044 175.037 95.6174C174.283 97.0336 173.681 98.5787 173.647 100.185C173.613 101.792 174.226 103.472 175.506 104.409L175.528 104.424C175.388 104.813 175.247 105.202 175.107 105.59C175.076 105.674 175.046 105.767 175.078 105.849C175.115 105.943 175.218 105.988 175.311 106.023C175.766 106.195 176.221 106.368 176.676 106.54C176.901 106.625 177.137 106.712 177.376 106.687C177.902 106.633 178.233 106.078 178.366 105.559C178.398 105.434 178.424 105.307 178.449 105.18C181.437 104.808 184.232 101.387 183.914 98.3648Z" fill="#EACDB0"/>
<path d="M159.574 48.0816C160.048 46.6913 161.559 45.9483 162.949 46.4219C164.34 46.8956 165.083 48.4067 164.609 49.7969C164.136 51.1874 162.625 51.9306 161.234 51.4569C159.844 50.9833 159.101 49.4722 159.574 48.0816ZM154.959 46.5095C153.617 50.4488 155.722 54.7303 159.662 56.0722C163.601 57.4143 167.883 55.3088 169.225 51.3695C170.567 47.43 168.461 43.1485 164.522 41.8066C160.582 40.4645 156.301 42.57 154.959 46.5095Z" fill="#D1B337"/>
<path d="M145.286 41.5417C148.868 33.3815 157.843 28.9675 166.493 31.1125L162.312 43.385C160.439 43.31 158.642 44.1939 157.558 45.7225L145.286 41.5417ZM144.265 44.5391L156.537 48.7201C156.462 50.5926 157.346 52.3895 158.875 53.4736L154.694 65.7459C146.534 62.1641 142.12 53.1888 144.265 44.5391ZM161.234 51.4573C159.844 50.9837 159.101 49.4726 159.574 48.082C160.048 46.6918 161.559 45.9487 162.95 46.4223C164.34 46.896 165.083 48.4071 164.609 49.7973C164.136 51.1878 162.625 51.9311 161.234 51.4573ZM161.872 54.4946C163.745 54.5693 165.542 53.6859 166.626 52.1571L178.898 56.3381C175.317 64.498 166.341 68.9121 157.692 66.7671L161.872 54.4946ZM179.919 53.3404L167.647 49.1594C167.722 47.287 166.838 45.49 165.309 44.406L169.49 32.1337C177.65 35.7155 182.064 44.6908 179.919 53.3404ZM138.666 45.0224C138.402 46.5929 138.3 48.1638 138.351 49.7152L134.448 51.0587L135.722 57.5035L139.848 57.2598C140.399 58.7304 141.094 60.1436 141.923 61.4778L139.211 64.5969L143.537 69.5409L146.984 67.2696C148.182 68.257 149.488 69.1357 150.894 69.8848L150.105 73.9397L156.324 76.0585L158.175 72.3651C159.745 72.6296 161.316 72.7315 162.867 72.6805L164.211 76.584L170.656 75.3094L170.412 71.1836C171.883 70.6325 173.296 69.9373 174.63 69.1091L177.749 71.8211L182.693 67.4946L180.422 64.0474C181.41 62.85 182.288 61.5435 183.037 60.1384L187.092 60.9269L189.211 54.7081L185.518 52.857C185.782 51.2867 185.884 49.716 185.833 48.1644L189.736 46.8211L188.462 40.3759L184.336 40.6196C183.785 39.1494 183.09 37.7358 182.261 36.4017L184.973 33.2828L180.647 28.3386L177.2 30.6097C176.002 29.6223 174.696 28.7439 173.291 27.995L174.079 23.9399L167.86 21.8209L166.01 25.5142C164.439 25.2498 162.868 25.1478 161.317 25.1988L159.973 21.2952L153.528 22.5702L153.772 26.696C152.302 27.2471 150.888 27.9422 149.554 28.7705L146.435 26.0585L141.491 30.3849L143.762 33.8319C142.775 35.0296 141.896 36.336 141.147 37.7412L137.092 36.9526L134.973 43.1712L138.666 45.0224Z" fill="#EFD154"/>
<path d="M142.652 42.317C139.001 53.0357 144.75 64.727 155.469 68.3787C166.188 72.0303 177.88 66.2806 181.531 55.5619C185.183 44.8429 179.433 33.1515 168.714 29.4998C157.995 25.8482 146.304 31.5979 142.652 42.317ZM141.797 42.0255C145.609 30.8347 157.815 24.8322 169.006 28.6446C180.196 32.457 186.199 44.6628 182.386 55.8532C178.574 67.0438 166.369 73.0465 155.178 69.2339C143.987 65.4215 137.985 53.2161 141.797 42.0255Z" fill="#C1B23F"/>
<path d="M143.894 46.5018C142.812 54.5135 147.15 62.4346 154.694 65.7459L156.171 61.4116C157.038 62.1663 157.911 62.883 158.783 63.5634L157.692 66.7671C159.784 67.286 161.894 67.4175 163.944 67.2088C166.355 68.7485 168.67 70.0155 170.759 71.0434C170.643 71.0891 170.529 71.1396 170.412 71.1836L170.656 75.3094L164.211 76.584L162.867 72.6805C161.316 72.7315 159.745 72.6296 158.175 72.3651L156.324 76.0585L150.105 73.9397L150.894 69.8848C149.488 69.1357 148.182 68.257 146.984 67.2696L143.537 69.5409L139.211 64.5969L141.923 61.4778C141.094 60.1436 140.399 58.7304 139.848 57.2598L135.722 57.5035L134.448 51.0587L138.351 49.7152C138.3 48.1638 138.402 46.5929 138.666 45.0224L134.973 43.1712L137.092 36.9526L139.848 37.4886C140.968 40.7505 142.34 43.7485 143.894 46.5018Z" fill="#D1B337"/>
<path d="M142.301 43.4588C139.416 53.8537 145.13 64.8566 155.47 68.379C159.251 69.6671 163.154 69.7839 166.782 68.9266C167.165 69.1462 167.543 69.3585 167.918 69.5644C163.872 70.7133 159.452 70.6901 155.178 69.2342C144.057 65.4454 138.061 53.3667 141.73 42.2329C141.917 42.646 142.107 43.0553 142.301 43.4588Z" fill="#ADA03B"/>
<path d="M172.473 27.4972C172.496 27.5744 173.255 24.2635 173.255 24.2635L168.273 22.5977C168.273 22.5977 171.543 24.338 172.473 27.4972Z" fill="#FAEB7D"/>
<path d="M114.854 99.167L125.68 100.796C125.786 101.416 126.025 102.018 126.4 102.558L121.479 112.5C120.929 113.612 119.468 113.916 118.536 113.097C115.867 110.75 113.891 107.568 113.057 103.834C112.858 102.941 112.732 102.049 112.674 101.164C112.595 99.9564 113.658 98.9869 114.854 99.167ZM124.711 114.268L129.576 104.437C130.585 104.541 131.626 104.3 132.506 103.703L140.967 110.632C141.898 111.395 141.895 112.822 140.959 113.579C138.94 115.212 136.524 116.416 133.819 117.019C131.138 117.618 128.464 117.562 125.962 116.958C124.78 116.672 124.171 115.358 124.711 114.268ZM134.421 100.514C134.47 100.051 134.446 99.5805 134.349 99.1223L143.483 93.0259C144.494 92.3509 145.883 92.782 146.31 93.9206C146.591 94.6722 146.824 95.4521 147.004 96.2578C147.828 99.9499 147.412 103.63 146.031 106.862C145.531 108.032 144.058 108.406 143.073 107.6L134.421 100.514ZM130.23 97.3981C131.692 97.5076 132.789 98.7823 132.679 100.245C132.569 101.707 131.294 102.804 129.832 102.694C128.369 102.584 127.273 101.309 127.383 99.8468C127.493 98.3847 128.767 97.2879 130.23 97.3981ZM141.35 90.0247L132.144 96.1688C131.767 95.9629 131.365 95.8159 130.953 95.7282L128.552 84.9711C128.283 83.7658 129.218 82.6275 130.453 82.6565C134.613 82.7542 138.536 84.3513 141.562 87.0275C142.492 87.8503 142.383 89.3352 141.35 90.0247ZM127.361 96.5295C127.252 96.6123 127.146 96.7001 127.043 96.7942C126.897 96.9283 126.764 97.0708 126.639 97.2188L113.322 95.2144C114.657 90.6124 117.866 86.6739 122.259 84.484C123.363 83.934 124.691 84.5688 124.96 85.7728L127.361 96.5295ZM99.5327 102.753L96.7168 104.165C96.8505 105.231 97.0345 106.295 97.2713 107.357C97.5082 108.418 97.7944 109.46 98.1264 110.481L101.276 110.562C104.858 110.654 106.943 114.647 104.972 117.64L103.232 120.282C104.529 121.998 105.995 123.59 107.615 125.037L110.386 123.531C113.534 121.819 117.337 124.235 117.126 127.812L116.941 130.96C118.94 131.812 121.004 132.461 123.108 132.906L124.76 130.207C126.631 127.151 131.132 127.341 132.738 130.544L134.151 133.36C135.216 133.226 136.28 133.042 137.342 132.806C138.403 132.569 139.445 132.282 140.466 131.95L140.547 128.801C140.639 125.219 144.632 123.133 147.625 125.104L150.267 126.845C151.983 125.547 153.575 124.082 155.022 122.462L153.516 119.69C151.804 116.542 154.219 112.739 157.797 112.95L160.945 113.135C161.796 111.137 162.446 109.073 162.89 106.968L160.192 105.316C157.136 103.445 157.326 98.9446 160.529 97.3383L163.345 95.9263C163.211 94.8609 163.027 93.796 162.79 92.7349C162.553 91.6737 162.267 90.6318 161.935 89.6105L158.786 89.5298C155.204 89.4377 153.118 85.4449 155.089 82.4521L156.829 79.8093C155.532 78.0934 154.067 76.5015 152.447 75.0545L149.676 76.561C146.527 78.2723 142.725 75.8572 142.935 72.28L143.12 69.1316C141.122 68.2803 139.058 67.6305 136.953 67.1862L135.301 69.8849C133.431 72.9411 128.93 72.751 127.323 69.5479L125.911 66.7318C124.846 66.8655 123.781 67.0494 122.72 67.2863C121.659 67.5232 120.617 67.8094 119.596 68.1411L119.515 71.2904C119.423 74.8726 115.43 76.9584 112.437 74.9876L109.794 73.2471C108.078 74.5443 106.487 76.0099 105.04 77.6301L106.546 80.4011C108.257 83.5494 105.842 87.3519 102.265 87.1417L99.1166 86.9561C98.2652 88.9549 97.6156 91.0187 97.1712 93.1236L99.8699 94.7755C102.926 96.6462 102.736 101.147 99.5327 102.753Z" fill="#659993"/>
<path d="M130.046 122.254C129.49 122.254 128.93 122.233 128.367 122.191C123.154 121.8 118.491 119.628 114.931 116.319C115.494 116.385 115.985 116.477 116.536 116.697C116.899 116.843 117.947 116.851 118.028 116.961H118.028L116.002 111.029C118.987 114.839 123.5 117.43 128.695 117.82C129.147 117.854 129.597 117.871 130.043 117.871C139.271 117.872 147.102 110.73 147.805 101.381C148.541 91.58 141.166 83.0073 131.365 82.2713C130.914 82.2373 130.463 82.2206 130.017 82.2206C120.789 82.2206 112.958 89.3613 112.255 98.7105C112.225 99.1144 112.209 99.5162 112.205 99.9154L109.421 91.7655C112.737 83.528 120.82 77.8373 130.014 77.8373C130.57 77.8373 131.13 77.8581 131.693 77.9006C143.905 78.8177 153.093 89.4983 152.175 101.709C151.731 107.631 148.989 112.843 144.89 116.535C144.833 116.52 144.776 116.513 144.719 116.513C144.56 116.513 144.403 116.572 144.266 116.712C144.201 116.779 144.137 116.845 144.072 116.911L142.808 114.747L137.771 117.636L139.285 120.229C136.457 121.532 133.322 122.254 130.046 122.254ZM112.899 109.175C112.584 109.175 112.557 109.031 112.278 108.629C111.7 107.801 111.224 106.911 110.851 105.974C110.498 105.089 110.112 104.061 110.07 103.105C110.038 102.377 110.556 102.028 111.148 101.798C111.402 101.723 111.654 101.641 111.906 101.552C112.056 101.498 112.17 101.418 112.25 101.322C112.446 104.075 113.276 106.676 114.604 108.965C114.122 109.028 113.64 109.095 113.158 109.155C113.053 109.168 112.97 109.175 112.899 109.175Z" fill="#5A8883"/>
<path d="M115.572 56.0081C110.912 58.8875 104.787 57.4626 101.895 52.7787C99.022 48.1026 100.461 41.9879 105.134 39.1133C109.792 36.2156 115.918 37.6592 118.8 42.3257C121.7 47.0036 120.242 53.1282 115.572 56.0081ZM132.314 50.5568C132.432 49.7128 132.492 48.869 132.507 48.0355L128.302 46.5879L127.527 42.2471L130.968 39.4292C130.339 37.8268 129.525 36.3123 128.552 34.9092L124.297 36.2156L121.114 33.163L122.242 28.8541C120.856 27.9733 119.359 27.2342 117.769 26.6739L115.074 30.2222L110.708 29.5897L109.113 25.4274C107.377 25.5259 105.683 25.8234 104.059 26.3073L103.966 30.7598L100.063 32.8204L96.3288 30.4013C95.0094 31.4799 93.8097 32.7118 92.7635 34.0815L95.2995 37.733L93.3609 41.6926L88.9171 41.9339C88.6945 42.7833 88.5126 43.6591 88.3889 44.5593C88.2814 45.3819 88.2191 46.1957 88.1968 47.0048L92.4015 48.4649L93.1625 52.8081L89.7036 55.6152C90.3351 57.2191 91.1422 58.7473 92.1147 60.1541L96.3753 58.8611L99.5496 61.9228L98.404 66.2297C99.833 67.1408 101.373 67.9054 103.013 68.4788L105.698 64.9192L110.067 65.5336L111.67 69.6914C113.406 69.5853 115.099 69.2791 116.722 68.7918L116.802 64.3395L120.696 62.2622L124.436 64.6711C125.758 63.5834 126.955 62.349 127.995 60.9797L125.439 57.3374L127.364 53.363L131.812 53.1155C132.024 52.2795 132.198 51.4261 132.314 50.5568Z" fill="#8C314C"/>
<path d="M117.246 58.7166C111.089 62.5221 103.002 60.6136 99.197 54.455C95.3805 48.2841 97.2913 40.2061 103.448 36.3949C109.611 32.5898 117.702 34.5059 121.508 40.6666C125.315 46.8242 123.408 54.9116 117.246 58.7166ZM122.72 39.9183C118.501 33.0881 109.531 30.9639 102.699 35.1823C95.8724 39.4075 93.7542 48.3635 97.9854 55.2047C102.204 62.0324 111.169 64.1482 117.995 59.9295C124.827 55.7109 126.941 46.7448 122.72 39.9183Z" fill="white"/>
<path d="M99.4226 61.8007L99.5493 61.9228L98.4838 66.2047L98.4038 66.2297C99.8327 67.1408 101.373 67.9054 103.012 68.4788L102.985 68.4011L105.698 64.9192L110.067 65.5336L111.726 69.6241L111.67 69.6914C113.406 69.5853 115.099 69.2791 116.722 68.7918L116.656 68.7489L116.802 64.3395L120.696 62.2622L124.444 64.5965L124.436 64.6711C125.757 63.5834 126.955 62.349 127.994 60.9797L127.915 60.9872L125.439 57.3374L127.364 53.363L131.765 53.0522L131.812 53.1155C132.024 52.2795 132.198 51.4261 132.314 50.5568C132.432 49.7128 132.492 48.869 132.507 48.0355L132.45 48.0897L131.274 47.6641C121.169 58.0093 108.866 61.1552 99.4226 61.8007Z" fill="#782441"/>
<path d="M117.995 59.9298C120.339 58.4826 122.127 56.4764 123.295 54.19C122.377 54.781 121.453 55.3295 120.525 55.8379C119.624 56.9451 118.529 57.9248 117.246 58.7168C114.443 60.4489 111.242 60.9935 108.226 60.4962C107.176 60.741 106.139 60.9486 105.121 61.1231C109.217 62.6996 113.977 62.4136 117.995 59.9298Z" fill="#BB899A"/>
<path d="M104.279 29.8376L104.457 26.2476C104.457 26.2476 106.724 25.5015 108.358 25.505C108.358 25.505 105.625 26.0166 104.279 29.8376Z" fill="#A63F65"/>
<path d="M113.337 206.653C111.979 206.653 108.009 206.361 107.376 205.205C106.623 203.835 114.621 203.628 115.353 203.604C116.576 203.565 117.8 203.549 119.024 203.549C119.397 203.549 119.77 203.549 120.143 203.553C120.159 203.553 120.175 203.553 120.192 203.553C120.408 203.553 120.672 203.543 120.957 203.531C121.242 203.521 121.55 203.509 121.855 203.509C122.516 203.509 123.165 203.561 123.556 203.777C123.825 203.926 124.043 204.194 123.974 204.46C123.911 204.702 123.551 204.933 123.154 205.122C122.788 205.298 122.39 205.437 122.165 205.517C121.244 205.848 120.276 206.077 119.296 206.24C117.385 206.557 115.431 206.613 113.488 206.651C113.442 206.653 113.392 206.653 113.337 206.653Z" fill="#CACACA"/>
<path d="M117.257 200.004C117.257 203.567 114.369 206.456 110.806 206.456C107.243 206.456 104.354 203.567 104.354 200.004C104.354 196.441 107.243 193.553 110.806 193.553C114.369 193.553 117.257 196.441 117.257 200.004Z" fill="#435B6E"/>
<path d="M108.32 203.845L106.236 199.772L108.721 195.931L113.291 196.163L115.375 200.236L112.889 204.077L108.32 203.845Z" fill="#2E414C"/>
<path d="M113.169 200.004C113.169 201.309 112.111 202.366 110.806 202.366C109.501 202.366 108.443 201.309 108.443 200.004C108.443 198.699 109.501 197.641 110.806 197.641C112.111 197.641 113.169 198.699 113.169 200.004Z" fill="#22323A"/>
<path d="M120.723 179.769L127.534 166.78L133.199 170.247L124.793 182.26L122.553 181.909C122.328 181.873 122.127 181.749 121.996 181.563L120.723 179.769Z" fill="#2E414C"/>
<path d="M121.679 177.804C123.547 178.479 125.467 179.134 127.444 179.77C128.289 180.041 128.812 178.733 127.935 178.459C125.886 177.819 123.898 177.158 121.966 176.474C121.167 176.191 120.906 177.525 121.679 177.804Z" fill="#435B6E"/>
<path d="M120.566 179.952C122.309 180.606 124.096 181.242 125.934 181.861C126.717 182.126 127.158 180.969 126.345 180.702C124.446 180.077 122.6 179.434 120.802 178.771C120.057 178.496 119.846 179.681 120.566 179.952Z" fill="#435B6E"/>
<path d="M124.154 172.993C126.312 173.652 128.545 174.281 130.864 174.88C131.859 175.137 132.714 173.303 131.67 173.047C129.241 172.452 126.906 171.824 124.653 171.16C123.725 170.887 123.266 172.721 124.154 172.993Z" fill="#435B6E"/>
<path d="M122.946 175.357C124.959 176.054 127.032 176.726 129.173 177.376C130.088 177.654 130.716 176.161 129.763 175.881C127.538 175.228 125.386 174.55 123.298 173.846C122.435 173.555 122.115 175.07 122.946 175.357Z" fill="#435B6E"/>
<path d="M124.745 182.213L124.438 182.204L124.845 181.491C124.953 181.528 125.061 181.565 125.17 181.602L124.745 182.213ZM125.897 180.554C125.752 180.506 125.606 180.457 125.461 180.409L126.078 179.325C126.26 179.385 126.443 179.445 126.626 179.505L125.897 180.554ZM127.457 178.309C127.23 178.238 127.004 178.166 126.779 178.094L127.485 176.855C127.753 176.939 128.022 177.023 128.292 177.106L127.457 178.309Z" fill="#4D5D67"/>
<path d="M126.625 179.505C126.442 179.445 126.259 179.385 126.077 179.325L126.778 178.094C127.003 178.166 127.229 178.237 127.456 178.309L126.625 179.505Z" fill="#5F7384"/>
<path d="M129.247 175.729C128.926 175.634 128.607 175.538 128.289 175.442L128.904 174.362C129.265 174.46 129.629 174.557 129.994 174.653L129.247 175.729ZM131.191 172.93C130.759 172.822 130.33 172.714 129.904 172.605L130.719 171.175L131.713 172.179L131.191 172.93Z" fill="#4D5D67"/>
<path d="M125.168 181.602C125.06 181.565 124.951 181.527 124.843 181.49L125.459 180.408C125.605 180.457 125.75 180.505 125.896 180.554L125.168 181.602Z" fill="#5F7384"/>
<path d="M129.994 174.654C129.629 174.557 129.265 174.46 128.904 174.362L129.904 172.605C130.33 172.714 130.759 172.823 131.191 172.93L129.994 174.654Z" fill="#5F7384"/>
<path d="M128.292 177.106C128.022 177.023 127.753 176.939 127.485 176.855L128.289 175.442C128.607 175.538 128.927 175.634 129.248 175.729L128.292 177.106Z" fill="#5F7384"/>
<path d="M137.935 168.659C138.021 166.439 136.296 164.039 134.105 162.698C131.914 161.357 128.992 160.913 127.054 162C124.115 163.648 124.2 168.145 128.981 171.071C133.761 173.997 137.805 172.026 137.935 168.659Z" fill="#5C7789"/>
<path d="M129.841 169.667C125.06 166.74 124.704 162.685 127.434 161.38C129.234 160.519 132.074 161.097 134.265 162.438C136.456 163.779 138.263 166.045 138.315 168.039C138.394 171.064 134.621 172.592 129.841 169.667Z" fill="#435B6E"/>
<path d="M130.683 161.925L134.099 163.057L136.492 165.688L135.798 168.425L130.776 167.542L128.271 163.464L130.683 161.925Z" fill="#2E414C"/>
<path d="M132.066 166.03C130.792 165.251 130.302 164.072 130.881 163.49C131.38 162.989 132.52 163.112 133.489 163.705C134.458 164.298 135.086 165.258 134.867 165.929C134.612 166.709 133.34 166.81 132.066 166.03Z" fill="#22323A"/>
<path d="M145.789 131.365L137.771 117.636L142.808 114.747L150.826 128.476L149.604 130.915C149.4 131.323 148.971 131.569 148.517 131.539L145.789 131.365Z" fill="#2E414C"/>
<path d="M140.555 122.785C142.216 121.217 143.845 119.614 145.443 117.974C146.114 117.286 144.939 116.023 144.267 116.712C142.669 118.352 141.039 119.956 139.379 121.524C138.682 122.181 139.86 123.442 140.555 122.785Z" fill="#435B6E"/>
<path d="M142.282 125.795C143.942 124.228 145.571 122.624 147.17 120.984C147.84 120.295 146.665 119.033 145.993 119.722C144.394 121.362 142.765 122.966 141.105 124.533C140.408 125.191 141.586 126.452 142.282 125.795Z" fill="#435B6E"/>
<path d="M144.008 128.805C145.668 127.237 147.297 125.633 148.896 123.993C149.567 123.305 148.391 122.042 147.719 122.732C146.121 124.372 144.491 125.976 142.831 127.543C142.134 128.201 143.312 129.462 144.008 128.805Z" fill="#435B6E"/>
<path d="M145.734 131.815C147.395 130.247 149.024 128.643 150.622 127.003C151.293 126.315 150.118 125.052 149.446 125.742C147.848 127.382 146.218 128.985 144.558 130.553C143.861 131.211 145.039 132.471 145.734 131.815Z" fill="#435B6E"/>
<path d="M149.491 131.19L149.458 131.137C149.515 131.07 149.564 130.996 149.604 130.915L149.877 130.37L149.882 130.379L149.491 131.19Z" fill="white"/>
<path d="M149.458 131.137L148.325 129.314C148.565 129.078 148.804 128.84 149.043 128.601L149.877 130.37L149.604 130.915C149.563 130.996 149.514 131.07 149.458 131.137ZM147.391 127.813L146.508 126.393C146.849 126.058 147.188 125.721 147.526 125.382L148.262 126.944C147.972 127.235 147.682 127.524 147.391 127.813ZM145.575 124.892L144.692 123.472C145.133 123.038 145.571 122.602 146.008 122.163L146.744 123.724C146.356 124.115 145.966 124.504 145.575 124.892ZM143.759 121.971L142.876 120.55C143.417 120.019 143.955 119.483 144.489 118.944L145.225 120.504C144.739 120.996 144.25 121.485 143.759 121.971ZM141.943 119.049L141.145 117.766L143.223 116.256L143.707 117.283C143.123 117.877 142.535 118.465 141.943 119.049Z" fill="#3E505A"/>
<path d="M142.876 120.551L141.942 119.05C142.534 118.466 143.123 117.877 143.706 117.284L144.489 118.944C143.955 119.483 143.417 120.019 142.876 120.551Z" fill="#526879"/>
<path d="M144.693 123.472L143.759 121.971C144.251 121.485 144.74 120.996 145.226 120.504L146.008 122.164C145.572 122.602 145.134 123.038 144.693 123.472Z" fill="#526879"/>
<path d="M146.508 126.394L145.575 124.892C145.966 124.505 146.356 124.116 146.744 123.725L147.526 125.383C147.188 125.721 146.849 126.058 146.508 126.394Z" fill="#526879"/>
<path d="M148.325 129.315L147.392 127.813C147.683 127.524 147.973 127.235 148.262 126.944L149.044 128.601C148.805 128.84 148.566 129.078 148.325 129.315Z" fill="#526879"/>
<path d="M144.123 109.003C142.159 108.105 139.107 108.769 136.774 110.242C134.442 111.716 132.545 114.178 132.537 116.322C132.524 119.573 136.633 121.16 141.724 117.944C146.814 114.728 147.101 110.365 144.123 109.003Z" fill="#5C7789"/>
<path d="M140.893 116.651C135.803 119.867 131.954 118.688 132.17 115.752C132.312 113.815 134.287 111.476 136.62 110.002C138.953 108.529 141.926 107.742 143.756 108.432C146.531 109.479 145.984 113.435 140.893 116.651Z" fill="#435B6E"/>
<path d="M134.593 113.481L137.364 110.83L140.966 109.651L143.086 111.286L139.719 115.474L134.751 116.219L134.593 113.481Z" fill="#2E414C"/>
<path d="M139.012 113.755C137.656 114.612 136.341 114.617 136.11 113.881C135.912 113.248 136.607 112.268 137.638 111.617C138.669 110.965 139.859 110.754 140.354 111.2C140.929 111.718 140.369 112.898 139.012 113.755Z" fill="#22323A"/>
<path d="M111.769 101.285L114.37 108.972C114.667 109.848 115.618 110.318 116.494 110.022L117.461 109.694C118.337 109.398 118.807 108.447 118.51 107.571L115.909 99.8838C115.612 99.0078 114.662 98.5378 113.786 98.8341L112.819 99.1614C111.943 99.4579 111.473 100.409 111.769 101.285Z" fill="#2E414C"/>
<path d="M113.238 106.451C115.086 106.418 116.934 106.403 118.782 106.408C119.305 106.409 119.357 107.225 118.829 107.224C116.98 107.22 115.133 107.234 113.285 107.267C112.761 107.276 112.71 106.46 113.238 106.451Z" fill="#435B6E"/>
<path d="M112.414 104.017C114.262 103.984 116.109 103.969 117.958 103.973C118.481 103.975 118.532 104.791 118.004 104.79C116.156 104.786 114.309 104.8 112.461 104.833C111.937 104.842 111.886 104.026 112.414 104.017Z" fill="#435B6E"/>
<path d="M111.935 101.804C113.783 101.772 115.631 101.757 117.478 101.761C118.002 101.763 118.054 102.579 117.525 102.578C115.678 102.574 113.83 102.588 111.982 102.621C111.458 102.63 111.407 101.814 111.935 101.804Z" fill="#435B6E"/>
<path d="M112.391 99.7156C113.423 99.5706 114.457 99.4381 115.495 99.3239C116.259 99.2397 117.411 98.8936 118.167 99.2995C118.889 99.6874 119.259 100.785 119.591 101.486C120.052 102.456 120.45 103.455 120.781 104.472C121.078 105.385 121.317 106.314 121.511 107.25C121.664 107.982 121.783 108.712 121.173 109.213C119.848 110.302 117.49 110.155 115.849 110.133C114.872 110.12 114.721 108.557 115.705 108.57C117.071 108.589 118.419 108.59 119.71 108.175C120.194 108.019 120.134 108.004 120.029 107.476C119.95 107.079 119.855 106.684 119.752 106.291C119.571 105.603 119.361 104.921 119.12 104.249C118.879 103.576 118.61 102.913 118.312 102.262C118.151 101.911 117.982 101.493 117.774 101.169C117.484 100.717 117.478 100.769 117.023 100.744C116.353 100.708 115.606 100.888 114.947 100.965C114.141 101.06 113.337 101.166 112.535 101.279C111.573 101.414 111.434 99.8504 112.391 99.7156Z" fill="#AFBDC6"/>
<path d="M108.784 100.68C109.514 100.474 110.258 100.376 110.986 100.161C111.099 100.123 111.212 100.087 111.324 100.053C112.289 99.7597 112.877 101.208 111.906 101.552C111.655 101.641 111.403 101.723 111.148 101.799C110.556 102.028 110.038 102.377 110.07 103.105C110.112 104.062 110.499 105.09 110.851 105.974C111.225 106.911 111.7 107.801 112.278 108.63C112.62 109.12 112.583 109.226 113.158 109.155C113.67 109.091 114.182 109.02 114.693 108.953C115.214 108.885 115.513 109.272 115.546 109.683C115.726 109.998 115.716 110.405 115.331 110.663C114.191 111.427 112.639 112.18 111.364 111.159C110.709 110.635 110.452 109.7 110.134 108.962C109.751 108.078 109.369 107.192 108.987 106.308C108.447 105.057 107.217 103.248 107.583 101.828C107.742 101.212 108.193 100.848 108.784 100.68Z" fill="#2E414C"/>
<path d="M123.425 105.51C125.55 105.286 127.618 104.902 129.711 104.473C131.112 104.186 132.489 103.94 133.85 103.503C135.191 103.072 136.519 102.602 137.873 102.216C138.886 101.928 142.054 100.713 142.703 102.028C143.096 102.823 142.289 103.79 141.817 104.355C141.117 105.192 140.384 106.043 139.635 106.825C137.389 109.17 134.841 111.224 132.07 112.917C129.879 114.257 127.517 115.382 125.011 115.917C124.723 115.978 124.433 116.032 124.14 116.077C124.018 116.096 123.887 116.113 123.774 116.062C123.609 115.986 123.537 115.794 123.482 115.621C122.59 112.81 121.871 109.945 121.329 107.046C121.26 106.676 121.198 106.273 121.376 105.941C121.665 105.403 122.905 105.564 123.425 105.51Z" fill="#AFBDC6"/>
<path d="M109.12 100.886C108.699 100.938 108.451 101.367 108.598 101.791L111.286 109.557C111.406 109.903 111.751 110.125 112.094 110.075L115.507 109.579L118.029 116.961H118.029C117.948 116.851 116.9 116.843 116.536 116.697C115.888 116.438 115.323 116.356 114.625 116.286C110.176 115.842 105.449 115.705 101.656 118.462C95.5559 122.897 89.5611 127.493 83.565 132.067C77.4824 136.707 71.4484 141.413 65.5227 146.252C65.404 146.349 65.2856 146.446 65.1672 146.543C62.2366 148.94 59.3325 151.369 56.4207 153.789C54.9069 155.048 53.391 156.304 51.868 157.552C50.2314 158.893 49.2171 160.296 46.9071 159.575C44.8451 158.931 42.7857 157.469 41.4319 155.804C40.3203 154.437 39.5851 152.837 39.2195 151.117C38.8243 149.26 38.108 146.949 40.0171 145.734C40.8546 145.201 41.6823 144.671 42.4826 144.081C54.8036 135.709 67.3432 127.371 79.4853 118.645C80.3458 118.026 81.2069 117.408 82.0694 116.792C85.2584 114.515 90.5555 110.431 93.6696 108.049C99.7369 103.407 100.443 99.9789 103.936 94.3426C105.346 92.0669 106.665 89.735 107.921 87.3706L112.398 100.478L109.12 100.886Z" fill="#435B6E"/>
<path d="M118.572 81.0711C123.162 80.2038 134.452 85.8304 137.423 87.0704C140.395 88.3103 138.46 90.6497 138.46 90.6497C137.928 90.7301 137.397 90.8167 136.866 90.9043C135.429 91.1418 133.995 91.3962 132.565 91.6728C131.52 91.8746 130.477 92.0855 129.435 92.3014C128.914 92.4092 128.392 92.5141 127.872 92.6283C127.456 92.7196 127.075 92.9329 126.663 93.0602C126.205 93.202 125.746 93.3442 125.302 93.5247C124.454 93.8691 123.534 94.3519 122.847 94.9657C122.606 95.1812 122.233 95.7418 122.364 96.1084C122.38 96.1517 129.598 116.227 129.598 116.227C129.684 116.465 129.51 116.717 129.257 116.723L118.029 116.961C118.03 116.961 118.547 116.561 118.42 115.147C118.333 114.179 118.139 113.221 117.914 112.277C117.68 111.291 117.394 110.319 117.1 109.348L119.941 108.936C120.814 108.809 121.305 107.898 120.971 107.025L118.4 100.326C118.274 99.9973 117.944 99.7894 117.614 99.8305L114.302 100.242C112.67 95.3748 110.796 90.5895 108.688 85.9092C108.435 86.3978 108.179 86.8847 107.921 87.3707L107.719 86.7807C109.505 84.5505 113.981 81.9382 118.572 81.0711Z" fill="#C1D0DB"/>
<path d="M117.1 109.348C117.394 110.319 117.68 111.291 117.915 112.277C118.139 113.221 118.333 114.179 118.42 115.147C118.547 116.561 118.031 116.961 118.029 116.961L115.507 109.58L117.1 109.348Z" fill="#C1D0DB"/>
<path d="M114.302 100.242L112.398 100.478L107.92 87.3705C108.178 86.8844 108.435 86.3976 108.688 85.9089C110.796 90.5893 112.67 95.3745 114.302 100.242Z" fill="#C1D0DB"/>
<path d="M84.595 132.012C84.4853 132.096 84.3755 132.179 84.2657 132.263C77.7864 137.206 71.3595 142.218 65.0472 147.373C64.9209 147.476 64.7947 147.579 64.6686 147.682C61.5471 150.236 58.4536 152.824 55.352 155.402C53.7396 156.742 52.1248 158.08 50.5027 159.409C48.7591 160.838 47.6789 162.332 45.2183 161.564C43.0221 160.879 40.8282 159.321 39.3862 157.547C38.2024 156.091 37.419 154.387 37.0295 152.555C36.6087 150.577 35.8457 148.115 37.8791 146.821C38.7714 146.253 39.6531 145.689 40.5053 145.061C52.2023 137.113 64.5876 128.813 76.1901 120.604L84.595 132.012Z" fill="#E29530"/>
<path d="M43.628 149.701C42.1713 150.774 41.8605 152.825 42.9337 154.282C44.0071 155.739 46.0582 156.05 47.5147 154.976C48.9716 153.903 49.2824 151.852 48.2092 150.395C47.1356 148.939 45.0847 148.628 43.628 149.701Z" fill="white"/>
<path d="M84.9337 127.456C84.4851 127.456 84.0418 127.25 83.7539 126.86L81.194 123.385C80.7144 122.734 80.8524 121.819 81.5032 121.339C85.6665 118.273 99.479 108.048 100.328 106.743C101.079 105.589 101.878 104.466 102.669 103.339C103.121 102.694 104.604 99.7498 105.311 99.549C105.387 99.5272 105.462 99.5168 105.535 99.5168C106.97 99.5168 107.666 103.561 108.003 104.543C108.707 106.59 109.383 108.646 110.048 110.706C110.256 111.348 109.798 112.011 109.124 112.046C107.632 112.123 105.204 112.439 103.401 113.603C101.076 115.105 89.5898 124.171 85.8399 127.14C85.5708 127.353 85.2509 127.456 84.9337 127.456Z" fill="#526879"/>
<path d="M43.805 149.898C42.421 150.917 42.1247 152.873 43.1443 154.257C44.1639 155.641 46.1196 155.937 47.5036 154.918C48.8874 153.898 49.1837 151.942 48.1641 150.559C47.1442 149.175 45.1888 148.878 43.805 149.898ZM43.5867 149.602C45.134 148.461 47.3203 148.793 48.4606 150.34C49.6004 151.888 49.2691 154.074 47.7219 155.214C46.1746 156.354 43.9879 156.023 42.848 154.475C41.708 152.928 42.0395 150.742 43.5867 149.602Z" fill="#435B6E"/>
<path d="M66.3176 133.599L68.1301 135.061L70.1782 134.833L70.4495 135.235L69.9608 135.582L71.7179 135.872L72.6682 136.947L72.2247 138.786L70.6749 140.002L68.8637 139.367L67.3784 137.654L64.8096 135.758L66.3176 133.599Z" fill="#EBCEB1"/>
<path d="M68.2429 133.207L51.8472 116.901C51.2814 116.338 50.9283 115.127 50.566 114.428C49.7041 112.765 48.8426 111.103 47.9809 109.44C47.3915 108.303 46.6369 105.845 45.5023 105.162C43.654 104.05 41.0153 106.218 40.1101 107.689C37.3323 112.206 40.4024 116.709 42.0976 121.051L44.1973 124.468L65.2995 137.765L68.2429 133.207Z" fill="#D1D9DB"/>
<path d="M37.6172 87.071C37.6877 89.0923 38.5246 91.0198 39.6665 92.6558C40.2561 92.5119 40.7993 92.2152 41.3329 91.9163C43.7315 90.5726 46.0966 89.1099 48.1 87.188C50.1034 85.266 51.7406 82.6556 52.5312 80.5053C50.8247 79.1914 48.1627 78.5418 45.9617 78.674C41.9458 78.9151 37.4621 82.6382 37.6172 87.071Z" fill="#3C6794"/>
<path d="M55.0967 75.4123C55.8476 75.1223 56.7692 74.9063 57.3992 75.4071C58.1457 76.0003 57.9769 77.171 57.6395 78.0623C56.5029 81.0645 54.2161 83.615 51.3548 85.0707C50.1142 85.702 47.7715 86.2301 47.2083 84.3961C46.9071 83.416 47.6264 81.5655 48.0668 80.6427C49.2703 78.1207 52.6307 76.3644 55.0967 75.4123Z" fill="#3C6794"/>
<path d="M180.869 122.553L178.865 122.564C178.936 121.489 179.007 120.415 179.077 119.34C179.183 117.73 179.29 116.115 179.611 114.534C180.122 112.023 181.178 109.624 182.686 107.552C181.926 106.695 180.486 106.556 179.576 107.252C178.907 107.764 178.574 108.593 178.297 109.39C177.273 112.338 176.602 115.408 176.297 118.514C176.18 119.705 175.893 121.28 176.008 122.578L169.185 122.614C169.272 121.286 169.36 119.957 169.447 118.629C169.553 117.019 169.66 115.403 169.981 113.822C170.301 112.249 170.835 110.72 171.561 109.287C172.243 107.939 172.942 106.257 174.238 105.481C173.112 105.434 171.977 105.607 170.917 105.99C169.674 106.439 169.082 107.484 168.667 108.678C167.642 111.626 166.972 114.696 166.666 117.802C166.528 119.213 166.148 121.166 166.486 122.556C166.492 122.582 166.497 122.604 166.502 122.628L164.753 122.637L159.071 145.371H183.174L180.869 122.553Z" fill="#3C6794"/>
<path d="M144.688 124.399L140.88 122.762L141.532 121.122L144.397 121.672L144.341 120.758L147.423 122.551L146.978 124.344L144.688 124.399Z" fill="#EBCEB1"/>
<path d="M182.43 112.954C182.14 112.796 181.807 112.673 181.431 112.593C179.869 112.259 178.213 112.683 176.803 113.441C174.571 114.642 172.702 116.553 170.62 117.997C168.239 119.65 165.858 121.302 163.477 122.955L146.589 121.598L145.89 125.199L165.959 130.728C169.013 128.381 171.988 126.075 175.166 123.936C178.016 122.018 181.479 120.538 183.288 117.478C184.309 115.75 184.024 113.823 182.43 112.954Z" fill="#D1D9DB"/>
<path d="M173.287 94.4266C172.726 93.5379 172.301 92.4869 171.671 91.7539C170.907 90.8652 169.603 90.4023 169.223 89.2937C168.76 87.9431 169.587 86.3998 170.835 85.8457C171.586 85.5123 172.431 85.4497 173.252 85.4942C173.66 85.5162 174.072 85.5649 174.449 85.7212C175.157 86.0143 175.687 86.6995 175.793 87.4583C175.869 88.0014 175.745 88.5802 175.958 89.086C176.665 90.771 178.672 91.0024 180.196 91.397C181.753 91.8 183.198 91.8661 184.541 92.8892C186.622 94.475 187.365 97.4915 186.518 99.9677C185.672 102.444 183.416 104.31 180.885 104.975C179.463 105.348 180.654 104.271 181.011 103.926C181.722 103.238 182.335 102.389 182.66 101.449C183.081 100.23 182.952 98.7609 182.08 97.8106C181.31 96.9717 180.13 96.6699 179.016 96.4336C178.314 96.2848 177.543 96.035 176.822 96.0445C176.318 96.0509 175.904 96.1792 175.389 96.0814C174.411 95.8952 173.793 95.2269 173.287 94.4266Z" fill="#534741"/>
<path d="M187.384 106.253C187.863 106.728 188.491 107.206 189.147 107.047C189.592 106.94 189.927 106.546 190.077 106.113C190.226 105.68 190.219 105.209 190.185 104.752C189.972 101.935 188.752 99.2042 186.795 97.1662C186.421 96.7769 185.946 96.3857 185.41 96.4502C184.663 96.5402 184.163 97.5485 183.857 98.149C183.618 98.6179 184.531 99.2339 184.749 99.728C185.014 100.328 185.086 101.019 184.911 101.655C184.764 102.193 184.72 102.661 184.987 103.189C185.557 104.317 186.493 105.368 187.384 106.253Z" fill="#3C6794"/>
<path d="M179.882 93.2278C180.732 94.0613 181.56 94.923 182.273 95.8766C183.651 97.7188 184.328 99.8068 185.37 101.819C185.926 102.893 186.607 102.106 187.28 101.412C187.962 100.709 188.49 99.8535 188.799 98.923C189.329 97.3269 189.211 95.5255 188.477 94.0124C187.874 92.7716 186.9 91.7574 185.941 90.7662C184.673 89.4555 182.568 88.8464 180.746 88.8815C179.899 88.8978 177.612 89.2211 177.253 90.1917C176.926 91.0738 179.31 92.6677 179.882 93.2278Z" fill="#3C6794"/>
</svg>
